<svg width="43" height="43" viewBox="0 0 43 43" fill="none" xmlns="http://www.w3.org/2000/svg">
<rect x="0.358333" y="0.358333" width="42.2833" height="42.2833" rx="21.1417" fill="#CCB884" stroke="#CCB884" stroke-width="0.716667"/>
<path d="M31.0474 21.8801C31.2573 21.6702 31.2573 21.3298 31.0474 21.1199L27.6268 17.6993C27.4169 17.4894 27.0765 17.4894 26.8666 17.6993C26.6567 17.9092 26.6567 18.2495 26.8666 18.4594L29.9072 21.5L26.8666 24.5406C26.6567 24.7505 26.6567 25.0908 26.8666 25.3007C27.0765 25.5106 27.4169 25.5106 27.6268 25.3007L31.0474 21.8801ZM16.334 21.5L16.334 22.0375L30.6673 22.0375L30.6673 21.5L30.6673 20.9625L16.334 20.9625L16.334 21.5Z" fill="#010101"/>
</svg>
